<?xml version="1.0" encoding="UTF-8"?>
<svg xmlns="http://www.w3.org/2000/svg" xmlns:xlink="http://www.w3.org/1999/xlink" width="25px" height="26px" viewBox="0 0 25 26" version="1.1">
<g id="surface1">
<path style=" stroke:none;fill-rule:nonzero;fill:rgb(100%,92.156863%,23.137255%);fill-opacity:1;" d="M 12.492188 0.570312 C 12.449219 0.6875 10.515625 6.84375 9.933594 8.71875 L 9.78125 9.203125 L 5.386719 9.203125 C 2.96875 9.203125 0.992188 9.207031 0.996094 9.214844 C 0.996094 9.226562 1.042969 9.265625 1.097656 9.308594 C 1.15625 9.351562 2.28125 10.199219 3.597656 11.191406 C 4.914062 12.179688 6.453125 13.335938 7.015625 13.757812 C 7.578125 14.183594 8.050781 14.539062 8.066406 14.550781 C 8.085938 14.570312 7.8125 15.464844 6.738281 18.898438 C 5.992188 21.277344 5.382812 23.226562 5.386719 23.230469 C 5.390625 23.230469 5.460938 23.183594 5.546875 23.121094 C 5.75 22.96875 9.699219 20.003906 11.265625 18.824219 L 12.503906 17.890625 L 12.578125 17.949219 C 12.621094 17.980469 13.070312 18.316406 13.574219 18.699219 C 14.328125 19.261719 19.058594 22.820312 19.503906 23.152344 L 19.625 23.246094 L 19.609375 23.183594 C 19.601562 23.152344 18.996094 21.207031 18.261719 18.863281 C 17.527344 16.519531 16.929688 14.589844 16.933594 14.574219 C 16.941406 14.558594 17.226562 14.339844 17.5625 14.085938 C 18.027344 13.738281 21.992188 10.753906 23.847656 9.355469 C 23.933594 9.289062 24.007812 9.226562 24.007812 9.21875 C 24.007812 9.210938 22.03125 9.203125 19.621094 9.203125 L 15.234375 9.203125 L 15.140625 8.910156 C 15.089844 8.753906 14.707031 7.535156 14.289062 6.207031 C 13.035156 2.207031 12.515625 0.558594 12.507812 0.550781 C 12.503906 0.546875 12.496094 0.554688 12.492188 0.570312 Z M 12.492188 0.570312 "/>
</g>
</svg>
